<?xml version="1.0" encoding="UTF-8"?>
<!DOCTYPE svg PUBLIC "-//W3C//DTD SVG 1.1//EN" "http://www.w3.org/Graphics/SVG/1.1/DTD/svg11.dtd">
<svg xmlns="http://www.w3.org/2000/svg" version="1.1" width="500px" height="500px" style="shape-rendering:geometricPrecision; text-rendering:geometricPrecision; image-rendering:optimizeQuality; fill-rule:evenodd; clip-rule:evenodd" xmlns:xlink="http://www.w3.org/1999/xlink">
<g><path style="opacity:0.004" fill="#fefffe" d="M 472.5,8.5 C 473.833,9.16667 473.833,9.16667 472.5,8.5 Z"/></g>
<g><path style="opacity:0.004" fill="#fefffe" d="M 74.5,16.5 C 75.8333,17.1667 75.8333,17.1667 74.5,16.5 Z"/></g>
<g><path style="opacity:0.004" fill="#fefffe" d="M 303.5,20.5 C 304.833,21.1667 304.833,21.1667 303.5,20.5 Z"/></g>
<g><path style="opacity:0.004" fill="#fefffe" d="M 38.5,24.5 C 39.8333,25.1667 39.8333,25.1667 38.5,24.5 Z"/></g>
<g><path style="opacity:0.004" fill="#fefffe" d="M 118.5,36.5 C 119.833,37.1667 119.833,37.1667 118.5,36.5 Z"/></g>
<g><path style="opacity:0.004" fill="#fefffe" d="M 267.5,41.5 C 268.833,42.1667 268.833,42.1667 267.5,41.5 Z"/></g>
<g><path style="opacity:0.004" fill="#fefffe" d="M 107.5,42.5 C 108.833,43.1667 108.833,43.1667 107.5,42.5 Z"/></g>
<g><path style="opacity:0.004" fill="#fefffe" d="M 59.5,43.5 C 60.8333,44.1667 60.8333,44.1667 59.5,43.5 Z"/></g>
<g><path style="opacity:0.004" fill="#fefffe" d="M 77.5,49.5 C 78.8333,50.1667 78.8333,50.1667 77.5,49.5 Z"/></g>
<g><path style="opacity:0.004" fill="#fefffe" d="M 133.5,62.5 C 134.833,63.1667 134.833,63.1667 133.5,62.5 Z"/></g>
<g><path style="opacity:0.004" fill="#fefffe" d="M 493.5,63.5 C 494.833,64.1667 494.833,64.1667 493.5,63.5 Z"/></g>
<g><path style="opacity:0.004" fill="#fefffe" d="M 215.5,64.5 C 216.833,65.1667 216.833,65.1667 215.5,64.5 Z"/></g>
<g><path style="opacity:0.004" fill="#fefffe" d="M 484.5,65.5 C 485.833,66.1667 485.833,66.1667 484.5,65.5 Z"/></g>
<g><path style="opacity:0.004" fill="#fefffe" d="M 199.5,71.5 C 200.833,72.1667 200.833,72.1667 199.5,71.5 Z"/></g>
<g><path style="opacity:0.004" fill="#fefffe" d="M 213.5,71.5 C 214.833,72.1667 214.833,72.1667 213.5,71.5 Z"/></g>
<g><path style="opacity:0.004" fill="#fefffe" d="M 32.5,73.5 C 33.8333,74.1667 33.8333,74.1667 32.5,73.5 Z"/></g>
<g><path style="opacity:0.004" fill="#fefffe" d="M 35.5,84.5 C 36.8333,85.1667 36.8333,85.1667 35.5,84.5 Z"/></g>
<g><path style="opacity:0.004" fill="#fefffe" d="M 215.5,85.5 C 216.833,86.1667 216.833,86.1667 215.5,85.5 Z"/></g>
<g><path style="opacity:0.004" fill="#fefffe" d="M 167.5,86.5 C 168.833,87.1667 168.833,87.1667 167.5,86.5 Z"/></g>
<g><path style="opacity:0.004" fill="#fefffe" d="M 119.5,87.5 C 120.833,88.1667 120.833,88.1667 119.5,87.5 Z"/></g>
<g><path style="opacity:0.004" fill="#fefffe" d="M 327.5,95.5 C 328.833,96.1667 328.833,96.1667 327.5,95.5 Z"/></g>
<g><path style="opacity:0.004" fill="#fefffe" d="M 313.5,101.5 C 314.833,102.167 314.833,102.167 313.5,101.5 Z"/></g>
<g><path style="opacity:0.004" fill="#fefffe" d="M 464.5,107.5 C 465.833,108.167 465.833,108.167 464.5,107.5 Z"/></g>
<g><path style="opacity:0.004" fill="#fefffe" d="M 314.5,113.5 C 315.833,114.167 315.833,114.167 314.5,113.5 Z"/></g>
<g><path style="opacity:0.004" fill="#fefffe" d="M 367.5,113.5 C 368.833,114.167 368.833,114.167 367.5,113.5 Z"/></g>
<g><path style="opacity:0.004" fill="#fefffe" d="M 452.5,114.5 C 453.833,115.167 453.833,115.167 452.5,114.5 Z"/></g>
<g><path style="opacity:0.004" fill="#fefffe" d="M 226.5,115.5 C 227.833,116.167 227.833,116.167 226.5,115.5 Z"/></g>
<g><path style="opacity:0.004" fill="#fefffe" d="M 396.5,125.5 C 397.833,126.167 397.833,126.167 396.5,125.5 Z"/></g>
<g><path style="opacity:0.004" fill="#fefffe" d="M 84.5,137.5 C 85.8333,138.167 85.8333,138.167 84.5,137.5 Z"/></g>
<g><path style="opacity:0.004" fill="#fefffe" d="M 298.5,138.5 C 299.833,139.167 299.833,139.167 298.5,138.5 Z"/></g>
<g><path style="opacity:0.004" fill="#fefffe" d="M 399.5,143.5 C 400.833,144.167 400.833,144.167 399.5,143.5 Z"/></g>
<g><path style="opacity:0.004" fill="#fefffe" d="M 446.5,144.5 C 447.833,145.167 447.833,145.167 446.5,144.5 Z"/></g>
<g><path style="opacity:0.004" fill="#fefffe" d="M 310.5,147.5 C 311.833,148.167 311.833,148.167 310.5,147.5 Z"/></g>
<g><path style="opacity:0.167" fill="#a8d3e2" d="M 238.5,152.5 C 211.5,152.5 184.5,152.5 157.5,152.5C 157.24,162.528 158.906,172.195 162.5,181.5C 162.5,182.5 162.5,183.5 162.5,184.5C 157.805,174.359 155.805,163.692 156.5,152.5C 183.997,151.171 211.33,151.171 238.5,152.5 Z"/></g>
<g><path style="opacity:1" fill="#3e879e" d="M 238.5,152.5 C 238.5,153.833 238.5,155.167 238.5,156.5C 238.167,156.5 237.833,156.5 237.5,156.5C 237.082,155.778 236.416,155.278 235.5,155C 209.833,154.333 184.167,154.333 158.5,155C 159.303,159.414 159.803,163.914 160,168.5C 161.868,172.611 163.035,176.944 163.5,181.5C 163.167,181.5 162.833,181.5 162.5,181.5C 158.906,172.195 157.24,162.528 157.5,152.5C 184.5,152.5 211.5,152.5 238.5,152.5 Z"/></g>
<g><path style="opacity:0.047" fill="#98c9dc" d="M 258.5,152.5 C 261.152,152.41 263.485,153.076 265.5,154.5C 262.848,154.59 260.515,153.924 258.5,152.5 Z"/></g>
<g><path style="opacity:1" fill="#268aaa" d="M 288.5,167.5 C 290.216,167.629 291.883,167.962 293.5,168.5C 295.523,171.52 298.19,173.854 301.5,175.5C 302.757,178.427 304.757,180.761 307.5,182.5C 307.927,185.01 308.593,187.343 309.5,189.5C 311.057,193.213 312.39,197.046 313.5,201C 316.031,202.534 317.864,204.701 319,207.5C 319.516,211.566 320.35,215.566 321.5,219.5C 320.833,220.833 320.167,222.167 319.5,223.5C 320.942,226.028 321.442,228.695 321,231.5C 317.667,230.833 314.333,230.167 311,229.5C 297.798,230.044 284.131,230.711 270,231.5C 264.551,230.28 259.551,229.613 255,229.5C 252.12,230.544 249.287,231.377 246.5,232C 245.13,229.167 245.464,226.5 247.5,224C 245.516,201.063 244.85,177.897 245.5,154.5C 256.032,154.278 266.032,156.278 275.5,160.5C 277.01,162.509 278.677,164.342 280.5,166C 282.035,166.496 283.535,166.33 285,165.5C 286.303,165.978 287.469,166.645 288.5,167.5 Z"/></g>
<g><path style="opacity:0.318" fill="#92c2d2" d="M 266.5,154.5 C 270.297,154.872 273.63,156.206 276.5,158.5C 272.703,158.128 269.37,156.794 266.5,154.5 Z"/></g>
<g><path style="opacity:1" fill="#268aa9" d="M 237.5,156.5 C 235.692,179.273 234.858,202.273 235,225.5C 233.654,228.095 231.82,228.762 229.5,227.5C 224.664,229.41 219.664,229.91 214.5,229C 213.167,228 213.167,227 214.5,226C 217.758,225.997 220.425,224.83 222.5,222.5C 217.615,221.198 212.782,221.198 208,222.5C 207.929,220.891 208.096,219.224 208.5,217.5C 207.245,212.258 205.578,212.258 203.5,217.5C 204.815,219.976 206.482,222.143 208.5,224C 205.843,224.175 203.176,224.008 200.5,223.5C 198.02,222.088 195.687,220.422 193.5,218.5C 191.929,217.691 190.262,217.357 188.5,217.5C 186.761,214.757 184.427,212.757 181.5,211.5C 179.833,210.5 178.5,209.167 177.5,207.5C 176.864,205.205 175.531,203.539 173.5,202.5C 173.5,200.5 172.5,199.5 170.5,199.5C 170.5,199.167 170.5,198.833 170.5,198.5C 170.13,195.733 168.796,193.733 166.5,192.5C 166.118,188.554 165.118,184.888 163.5,181.5C 163.035,176.944 161.868,172.611 160,168.5C 159.803,163.914 159.303,159.414 158.5,155C 184.167,154.333 209.833,154.333 235.5,155C 236.416,155.278 237.082,155.778 237.5,156.5 Z"/></g>
<g><path style="opacity:0.004" fill="#fefffe" d="M 433.5,157.5 C 434.833,158.167 434.833,158.167 433.5,157.5 Z"/></g>
<g><path style="opacity:0.122" fill="#9ecbdd" d="M 276.5,158.5 C 279.754,158.794 282.421,160.127 284.5,162.5C 281.515,161.674 278.849,160.341 276.5,158.5 Z"/></g>
<g><path style="opacity:0.004" fill="#fefffe" d="M 288.5,162.5 C 289.833,163.167 289.833,163.167 288.5,162.5 Z"/></g>
<g><path style="opacity:0.11" fill="#96ccd5" d="M 284.5,162.5 C 286.027,162.427 287.027,163.094 287.5,164.5C 285.973,164.573 284.973,163.906 284.5,162.5 Z"/></g>
<g><path style="opacity:0.004" fill="#fefffe" d="M 49.5,165.5 C 50.8333,166.167 50.8333,166.167 49.5,165.5 Z"/></g>
<g><path style="opacity:0.557" fill="#7db1bf" d="M 287.5,164.5 C 289.853,165.34 291.853,166.674 293.5,168.5C 291.883,167.962 290.216,167.629 288.5,167.5C 288.443,166.391 288.11,165.391 287.5,164.5 Z"/></g>
<g><path style="opacity:0.004" fill="#fefffe" d="M 58.5,168.5 C 59.8333,169.167 59.8333,169.167 58.5,168.5 Z"/></g>
<g><path style="opacity:0.004" fill="#fefffe" d="M 71.5,169.5 C 72.8333,170.167 72.8333,170.167 71.5,169.5 Z"/></g>
<g><path style="opacity:0.557" fill="#85b7c7" d="M 293.5,168.5 C 296.784,170.117 299.451,172.45 301.5,175.5C 298.19,173.854 295.523,171.52 293.5,168.5 Z"/></g>
<g><path style="opacity:0.345" fill="#8dbcd1" d="M 301.5,175.5 C 304.243,177.239 306.243,179.573 307.5,182.5C 304.757,180.761 302.757,178.427 301.5,175.5 Z"/></g>
<g><path style="opacity:0.906" fill="#78adbe" d="M 162.5,181.5 C 162.833,181.5 163.167,181.5 163.5,181.5C 165.118,184.888 166.118,188.554 166.5,192.5C 164.659,190.151 163.326,187.485 162.5,184.5C 162.5,183.5 162.5,182.5 162.5,181.5 Z"/></g>
<g><path style="opacity:1" fill="#66a2b6" d="M 307.5,182.5 C 309.9,184.296 311.567,186.63 312.5,189.5C 311.542,189.047 310.708,188.381 310,187.5C 309.536,188.094 309.369,188.761 309.5,189.5C 308.593,187.343 307.927,185.01 307.5,182.5 Z"/></g>
<g><path style="opacity:0.004" fill="#fefffe" d="M 350.5,190.5 C 351.833,191.167 351.833,191.167 350.5,190.5 Z"/></g>
<g><path style="opacity:0.129" fill="#98c3dc" d="M 312.5,189.5 C 313.906,189.973 314.573,190.973 314.5,192.5C 313.094,192.027 312.427,191.027 312.5,189.5 Z"/></g>
<g><path style="opacity:0.004" fill="#fefffe" d="M 155.5,192.5 C 156.833,193.167 156.833,193.167 155.5,192.5 Z"/></g>
<g><path style="opacity:0.565" fill="#87bccc" d="M 166.5,192.5 C 168.796,193.733 170.13,195.733 170.5,198.5C 168.684,196.882 167.351,194.882 166.5,192.5 Z"/></g>
<g><path style="opacity:0.004" fill="#fefffe" d="M 410.5,192.5 C 411.833,193.167 411.833,193.167 410.5,192.5 Z"/></g>
<g><path style="opacity:0.235" fill="#7bb6c4" d="M 256.5,152.5 C 252.167,152.5 247.833,152.5 243.5,152.5C 243.5,179.5 243.5,206.5 243.5,233.5C 243.167,233.5 242.833,233.5 242.5,233.5C 242.459,206.824 242.292,180.157 242,153.5C 242.7,151.968 243.866,150.968 245.5,150.5C 249.303,151.104 252.969,151.77 256.5,152.5 Z"/></g>
<g><path style="opacity:0.263" fill="#93cdd9" d="M 170.5,199.5 C 172.5,199.5 173.5,200.5 173.5,202.5C 172.167,201.833 171.167,200.833 170.5,199.5 Z"/></g>
<g><path style="opacity:0.945" fill="#62a1b0" d="M 314.5,192.5 C 316.341,194.849 317.674,197.515 318.5,200.5C 317.603,199.402 316.77,199.402 316,200.5C 315.178,197.883 314.678,195.216 314.5,192.5 Z"/></g>
<g><path style="opacity:0.502" fill="#89b9d0" d="M 318.5,200.5 C 321.473,206.085 323.473,212.085 324.5,218.5C 321.922,212.767 319.922,206.767 318.5,200.5 Z"/></g>
<g><path style="opacity:0.318" fill="#8abecf" d="M 173.5,202.5 C 175.531,203.539 176.864,205.205 177.5,207.5C 175.457,206.421 174.124,204.754 173.5,202.5 Z"/></g>
<g><path style="opacity:0.304" fill="#7db4c6" d="M 238.5,152.5 C 239.117,152.611 239.617,152.944 240,153.5C 240.167,157.667 240.333,161.833 240.5,166C 239.544,188.524 239.21,211.024 239.5,233.5C 239.5,233.833 239.5,234.167 239.5,234.5C 238.502,208.672 238.169,182.672 238.5,156.5C 238.5,155.167 238.5,153.833 238.5,152.5 Z"/></g>
<g><path style="opacity:0.4" fill="#8fc4d2" d="M 181.5,211.5 C 184.427,212.757 186.761,214.757 188.5,217.5C 185.573,216.243 183.239,214.243 181.5,211.5 Z"/></g>
<g><path style="opacity:0.961" fill="#5696a9" d="M 188.5,217.5 C 190.262,217.357 191.929,217.691 193.5,218.5C 195.687,220.422 198.02,222.088 200.5,223.5C 201.551,224.222 202.218,225.222 202.5,226.5C 200.847,226.34 199.514,225.674 198.5,224.5C 198.027,223.094 197.027,222.427 195.5,222.5C 192.63,221.567 190.296,219.9 188.5,217.5 Z"/></g>
<g><path style="opacity:0.004" fill="#fefffe" d="M 462.5,222.5 C 463.833,223.167 463.833,223.167 462.5,222.5 Z"/></g>
<g><path style="opacity:0.145" fill="#9bcadb" d="M 195.5,222.5 C 197.027,222.427 198.027,223.094 198.5,224.5C 196.973,224.573 195.973,223.906 195.5,222.5 Z"/></g>
<g><path style="opacity:0.004" fill="#fefffe" d="M 435.5,223.5 C 436.833,224.167 436.833,224.167 435.5,223.5 Z"/></g>
<g><path style="opacity:0.004" fill="#fefffe" d="M 129.5,228.5 C 130.833,229.167 130.833,229.167 129.5,228.5 Z"/></g>
<g><path style="opacity:0.325" fill="#81b7c8" d="M 202.5,226.5 C 207.032,227.105 211.032,228.772 214.5,231.5C 210.099,230.594 206.099,228.928 202.5,226.5 Z"/></g>
<g><path style="opacity:1" fill="#3388a3" d="M 256.5,152.5 C 257.167,152.5 257.833,152.5 258.5,152.5C 260.515,153.924 262.848,154.59 265.5,154.5C 265.833,154.5 266.167,154.5 266.5,154.5C 269.37,156.794 272.703,158.128 276.5,158.5C 278.849,160.341 281.515,161.674 284.5,162.5C 284.973,163.906 285.973,164.573 287.5,164.5C 288.11,165.391 288.443,166.391 288.5,167.5C 287.469,166.645 286.303,165.978 285,165.5C 283.535,166.33 282.035,166.496 280.5,166C 278.677,164.342 277.01,162.509 275.5,160.5C 266.032,156.278 256.032,154.278 245.5,154.5C 244.85,177.897 245.516,201.063 247.5,224C 245.464,226.5 245.13,229.167 246.5,232C 249.287,231.377 252.12,230.544 255,229.5C 259.551,229.613 264.551,230.28 270,231.5C 284.131,230.711 297.798,230.044 311,229.5C 314.333,230.167 317.667,230.833 321,231.5C 321.442,228.695 320.942,226.028 319.5,223.5C 320.167,222.167 320.833,220.833 321.5,219.5C 320.35,215.566 319.516,211.566 319,207.5C 317.864,204.701 316.031,202.534 313.5,201C 312.39,197.046 311.057,193.213 309.5,189.5C 309.369,188.761 309.536,188.094 310,187.5C 310.708,188.381 311.542,189.047 312.5,189.5C 312.427,191.027 313.094,192.027 314.5,192.5C 314.678,195.216 315.178,197.883 316,200.5C 316.77,199.402 317.603,199.402 318.5,200.5C 319.922,206.767 321.922,212.767 324.5,218.5C 324.5,218.833 324.5,219.167 324.5,219.5C 324.5,224.167 324.5,228.833 324.5,233.5C 323.5,233.5 322.5,233.5 321.5,233.5C 295.5,233.5 269.5,233.5 243.5,233.5C 243.5,206.5 243.5,179.5 243.5,152.5C 247.833,152.5 252.167,152.5 256.5,152.5 Z"/></g>
<g><path style="opacity:0.294" fill="#75b3be" d="M 216.5,231.5 C 219.152,231.41 221.485,232.076 223.5,233.5C 220.848,233.59 218.515,232.924 216.5,231.5 Z"/></g>
<g><path style="opacity:0.004" fill="#fefffe" d="M 327.5,232.5 C 328.833,233.167 328.833,233.167 327.5,232.5 Z"/></g>
<g><path style="opacity:0.312" fill="#6abeda" d="M 239.5,233.5 C 240.652,234.625 241.652,234.625 242.5,233.5C 242.833,233.5 243.167,233.5 243.5,233.5C 269.5,233.5 295.5,233.5 321.5,233.5C 321.5,234.167 321.5,234.833 321.5,235.5C 321.167,235.5 320.833,235.5 320.5,235.5C 293.328,235.831 266.328,235.498 239.5,234.5C 239.5,234.167 239.5,233.833 239.5,233.5 Z"/></g>
<g><path style="opacity:0.788" fill="#6ca8bd" d="M 224.5,233.5 C 226.989,233.298 229.323,233.798 231.5,235C 230.584,235.278 229.918,235.778 229.5,236.5C 224.256,237.815 218.923,238.482 213.5,238.5C 217.893,236.735 222.56,235.568 227.5,235C 226.263,234.768 225.263,234.268 224.5,233.5 Z"/></g>
<g><path style="opacity:1" fill="#268aa9" d="M 229.5,236.5 C 230.873,236.343 232.207,236.51 233.5,237C 233.043,237.414 232.709,237.914 232.5,238.5C 233.628,239.262 234.795,239.929 236,240.5C 237.011,239.663 238.178,239.33 239.5,239.5C 239.167,242.167 238.833,244.833 238.5,247.5C 238.5,250.167 238.5,252.833 238.5,255.5C 236.679,271.135 235.845,287.135 236,303.5C 235.5,304 235,304.5 234.5,305C 235.574,305.739 236.241,306.739 236.5,308C 236.236,310.728 235.236,313.061 233.5,315C 209.459,315.856 185.459,315.19 161.5,313C 158.758,307.656 159.258,302.49 163,297.5C 164.267,292.565 165.1,287.565 165.5,282.5C 167.39,282.703 168.89,282.037 170,280.5C 170.497,278.19 170.663,275.857 170.5,273.5C 172.42,270.661 174.087,267.661 175.5,264.5C 177.167,262.167 179.167,260.167 181.5,258.5C 187.025,256.973 191.025,253.64 193.5,248.5C 193.973,247.094 194.973,246.427 196.5,246.5C 198.848,246.408 200.514,245.408 201.5,243.5C 206.032,242.895 210.032,241.228 213.5,238.5C 218.923,238.482 224.256,237.815 229.5,236.5 Z"/></g>
<g><path style="opacity:1" fill="#278aa9" d="M 291.5,310.5 C 290.167,310.5 288.833,310.5 287.5,310.5C 282.173,308.841 277.507,306.174 273.5,302.5C 271.761,299.757 269.427,297.757 266.5,296.5C 266.027,295.094 265.027,294.427 263.5,294.5C 263.167,292.167 261.833,290.833 259.5,290.5C 258.833,289.5 258.167,288.5 257.5,287.5C 255.015,283.522 253.349,279.189 252.5,274.5C 251.167,274.5 249.833,274.5 248.5,274.5C 248.539,271.911 247.539,269.911 245.5,268.5C 245.5,268.167 245.5,267.833 245.5,267.5C 245.424,264.027 244.758,260.694 243.5,257.5C 243.789,253.894 243.456,250.394 242.5,247C 242.996,245.004 243.996,243.337 245.5,242C 267.452,241.733 289.119,241.899 310.5,242.5C 312.197,242.101 313.863,241.601 315.5,241C 314.044,240.577 313.544,239.744 314,238.5C 315.299,238.966 316.799,238.966 318.5,238.5C 317.263,262.326 317.263,285.993 318.5,309.5C 313.167,310.167 313.167,310.833 318.5,311.5C 318.5,312.833 318.5,314.167 318.5,315.5C 309.39,314.149 300.39,312.483 291.5,310.5 Z"/></g>
<g><path style="opacity:1" fill="#2b8aa6" d="M 237.5,156.5 C 237.833,156.5 238.167,156.5 238.5,156.5C 238.169,182.672 238.502,208.672 239.5,234.5C 266.328,235.498 293.328,235.831 320.5,235.5C 320.5,262.5 320.5,289.5 320.5,316.5C 318.5,316.5 316.5,316.5 314.5,316.5C 309.027,316.633 303.693,315.966 298.5,314.5C 296.167,313.167 293.833,311.833 291.5,310.5C 300.39,312.483 309.39,314.149 318.5,315.5C 318.5,314.167 318.5,312.833 318.5,311.5C 313.167,310.833 313.167,310.167 318.5,309.5C 317.263,285.993 317.263,262.326 318.5,238.5C 316.799,238.966 315.299,238.966 314,238.5C 313.544,239.744 314.044,240.577 315.5,241C 313.863,241.601 312.197,242.101 310.5,242.5C 289.119,241.899 267.452,241.733 245.5,242C 243.996,243.337 242.996,245.004 242.5,247C 243.456,250.394 243.789,253.894 243.5,257.5C 243.167,257.5 242.833,257.5 242.5,257.5C 241.962,255.883 241.629,254.216 241.5,252.5C 241.741,249.966 240.741,248.3 238.5,247.5C 238.833,244.833 239.167,242.167 239.5,239.5C 238.178,239.33 237.011,239.663 236,240.5C 234.795,239.929 233.628,239.262 232.5,238.5C 232.709,237.914 233.043,237.414 233.5,237C 232.207,236.51 230.873,236.343 229.5,236.5C 229.918,235.778 230.584,235.278 231.5,235C 229.323,233.798 226.989,233.298 224.5,233.5C 224.167,233.5 223.833,233.5 223.5,233.5C 221.485,232.076 219.152,231.41 216.5,231.5C 215.833,231.5 215.167,231.5 214.5,231.5C 211.032,228.772 207.032,227.105 202.5,226.5C 202.218,225.222 201.551,224.222 200.5,223.5C 203.176,224.008 205.843,224.175 208.5,224C 206.482,222.143 204.815,219.976 203.5,217.5C 205.578,212.258 207.245,212.258 208.5,217.5C 208.096,219.224 207.929,220.891 208,222.5C 212.782,221.198 217.615,221.198 222.5,222.5C 220.425,224.83 217.758,225.997 214.5,226C 213.167,227 213.167,228 214.5,229C 219.664,229.91 224.664,229.41 229.5,227.5C 231.82,228.762 233.654,228.095 235,225.5C 234.858,202.273 235.692,179.273 237.5,156.5 Z"/></g>
<g><path style="opacity:0.694" fill="#78aebe" d="M 213.5,238.5 C 210.032,241.228 206.032,242.895 201.5,243.5C 205.111,241.069 209.111,239.403 213.5,238.5 Z"/></g>
<g><path style="opacity:0.31" fill="#82b6c7" d="M 201.5,243.5 C 200.514,245.408 198.848,246.408 196.5,246.5C 197.659,244.75 199.326,243.75 201.5,243.5 Z"/></g>
<g><path style="opacity:0.004" fill="#fefffe" d="M 365.5,251.5 C 366.833,252.167 366.833,252.167 365.5,251.5 Z"/></g>
<g><path style="opacity:0.925" fill="#609aae" d="M 193.5,248.5 C 191.025,253.64 187.025,256.973 181.5,258.5C 184.619,254.043 188.619,250.709 193.5,248.5 Z"/></g>
<g><path style="opacity:0.16" fill="#9ecadc" d="M 324.5,219.5 C 326.267,223.908 326.767,228.574 326,233.5C 325,234.167 324,234.833 323,235.5C 322.832,263.003 322.332,290.336 321.5,317.5C 321.5,290.167 321.5,262.833 321.5,235.5C 321.5,234.833 321.5,234.167 321.5,233.5C 322.5,233.5 323.5,233.5 324.5,233.5C 324.5,228.833 324.5,224.167 324.5,219.5 Z"/></g>
<g><path style="opacity:0.714" fill="#75a9ba" d="M 242.5,257.5 C 242.833,257.5 243.167,257.5 243.5,257.5C 244.758,260.694 245.424,264.027 245.5,267.5C 243.733,265.208 242.733,262.542 242.5,259.5C 242.5,258.833 242.5,258.167 242.5,257.5 Z"/></g>
<g><path style="opacity:0.271" fill="#88bacc" d="M 175.5,264.5 C 174.087,267.661 172.42,270.661 170.5,273.5C 169.833,273.833 169.167,274.167 168.5,274.5C 170.062,270.608 172.395,267.275 175.5,264.5 Z"/></g>
<g><path style="opacity:0.157" fill="#9dc8da" d="M 245.5,268.5 C 247.539,269.911 248.539,271.911 248.5,274.5C 246.992,272.819 245.992,270.819 245.5,268.5 Z"/></g>
<g><path style="opacity:0.004" fill="#fefffe" d="M 454.5,273.5 C 455.833,274.167 455.833,274.167 454.5,273.5 Z"/></g>
<g><path style="opacity:0.004" fill="#fefffe" d="M 1.5,275.5 C 2.83333,276.167 2.83333,276.167 1.5,275.5 Z"/></g>
<g><path style="opacity:0.973" fill="#62a1b3" d="M 248.5,274.5 C 249.833,274.5 251.167,274.5 252.5,274.5C 253.349,279.189 255.015,283.522 257.5,287.5C 253.338,283.999 250.338,279.665 248.5,274.5 Z"/></g>
<g><path style="opacity:0.808" fill="#7cb2c1" d="M 168.5,274.5 C 167.783,278.88 165.783,282.546 162.5,285.5C 163.672,281.342 165.672,277.675 168.5,274.5 Z"/></g>
<g><path style="opacity:0.004" fill="#fefffe" d="M 246.5,281.5 C 247.833,282.167 247.833,282.167 246.5,281.5 Z"/></g>
<g><path style="opacity:0.051" fill="#bcdbeb" d="M 241.5,252.5 C 241.629,254.216 241.962,255.883 242.5,257.5C 242.5,258.167 242.5,258.833 242.5,259.5C 241.732,258.737 241.232,257.737 241,256.5C 240.832,276.338 240.332,296.004 239.5,315.5C 239.333,293.831 239.5,272.164 240,250.5C 240.278,251.416 240.778,252.082 241.5,252.5 Z"/></g>
<g><path style="opacity:0.004" fill="#fefffe" d="M 87.5,288.5 C 88.8333,289.167 88.8333,289.167 87.5,288.5 Z"/></g>
<g><path style="opacity:0.357" fill="#94c5d3" d="M 162.5,285.5 C 162.31,288.855 161.31,291.855 159.5,294.5C 159.528,291.084 160.528,288.084 162.5,285.5 Z"/></g>
<g><path style="opacity:0.22" fill="#a0d0e1" d="M 259.5,290.5 C 261.833,290.833 263.167,292.167 263.5,294.5C 261.833,293.5 260.5,292.167 259.5,290.5 Z"/></g>
<g><path style="opacity:1" fill="#35869f" d="M 238.5,255.5 C 238.5,275.833 238.5,296.167 238.5,316.5C 211.167,316.5 183.833,316.5 156.5,316.5C 157.053,311.518 157.387,306.518 157.5,301.5C 159.163,299.562 159.829,297.228 159.5,294.5C 161.31,291.855 162.31,288.855 162.5,285.5C 165.783,282.546 167.783,278.88 168.5,274.5C 169.167,274.167 169.833,273.833 170.5,273.5C 170.663,275.857 170.497,278.19 170,280.5C 168.89,282.037 167.39,282.703 165.5,282.5C 165.1,287.565 164.267,292.565 163,297.5C 159.258,302.49 158.758,307.656 161.5,313C 185.459,315.19 209.459,315.856 233.5,315C 235.236,313.061 236.236,310.728 236.5,308C 236.241,306.739 235.574,305.739 234.5,305C 235,304.5 235.5,304 236,303.5C 235.845,287.135 236.679,271.135 238.5,255.5 Z"/></g>
<g><path style="opacity:0.227" fill="#9bd3dd" d="M 263.5,294.5 C 265.027,294.427 266.027,295.094 266.5,296.5C 264.973,296.573 263.973,295.906 263.5,294.5 Z"/></g>
<g><path style="opacity:0.502" fill="#89b9c9" d="M 266.5,296.5 C 269.427,297.757 271.761,299.757 273.5,302.5C 270.573,301.243 268.239,299.243 266.5,296.5 Z"/></g>
<g><path style="opacity:0.004" fill="#fefffe" d="M 360.5,297.5 C 361.833,298.167 361.833,298.167 360.5,297.5 Z"/></g>
<g><path style="opacity:0.212" fill="#9ac8d6" d="M 159.5,294.5 C 159.829,297.228 159.163,299.562 157.5,301.5C 157.41,298.848 158.076,296.515 159.5,294.5 Z"/></g>
<g><path style="opacity:0.658" fill="#4c91a3" d="M 320.5,235.5 C 320.833,235.5 321.167,235.5 321.5,235.5C 321.5,262.833 321.5,290.167 321.5,317.5C 321.167,317.5 320.833,317.5 320.5,317.5C 318.265,317.795 316.265,317.461 314.5,316.5C 316.5,316.5 318.5,316.5 320.5,316.5C 320.5,289.5 320.5,262.5 320.5,235.5 Z"/></g>
<g><path style="opacity:0.635" fill="#7fb4c4" d="M 287.5,310.5 C 288.833,310.5 290.167,310.5 291.5,310.5C 293.833,311.833 296.167,313.167 298.5,314.5C 294.467,313.975 290.8,312.642 287.5,310.5 Z"/></g>
<g><path style="opacity:0.129" fill="#acd0e1" d="M 157.5,301.5 C 157.387,306.518 157.053,311.518 156.5,316.5C 155.284,311.434 155.617,306.434 157.5,301.5 Z"/></g>
<g><path style="opacity:0.286" fill="#97c8d8" d="M 298.5,314.5 C 303.693,315.966 309.027,316.633 314.5,316.5C 316.265,317.461 318.265,317.795 320.5,317.5C 312.916,318.75 305.583,317.75 298.5,314.5 Z"/></g>
<g><path style="opacity:0.478" fill="#7bb1c4" d="M 238.5,247.5 C 240.741,248.3 241.741,249.966 241.5,252.5C 240.778,252.082 240.278,251.416 240,250.5C 239.5,272.164 239.333,293.831 239.5,315.5C 239.5,316.5 239.5,317.5 239.5,318.5C 211.654,318.6 183.988,317.933 156.5,316.5C 183.833,316.5 211.167,316.5 238.5,316.5C 238.5,296.167 238.5,275.833 238.5,255.5C 238.5,252.833 238.5,250.167 238.5,247.5 Z"/></g>
<g><path style="opacity:0.004" fill="#fefffe" d="M 173.5,326.5 C 174.833,327.167 174.833,327.167 173.5,326.5 Z"/></g>
<g><path style="opacity:0.318" fill="#a6d1d9" d="M 116.5,329.5 C 120.019,328.192 123.685,328.192 127.5,329.5C 128.747,331.323 129.414,333.323 129.5,335.5C 128.833,334.833 128.167,334.167 127.5,333.5C 126.766,332.292 126.433,330.959 126.5,329.5C 123.5,329.5 120.5,329.5 117.5,329.5C 117.167,329.5 116.833,329.5 116.5,329.5 Z"/></g>
<g><path style="opacity:0.933" fill="#70a6b6" d="M 116.5,329.5 C 116.833,329.5 117.167,329.5 117.5,329.5C 117.414,330.496 117.748,331.329 118.5,332C 116.636,334.688 114.636,337.188 112.5,339.5C 113.321,335.873 114.654,332.54 116.5,329.5 Z"/></g>
<g><path style="opacity:0.059" fill="#c7eefd" d="M 297.5,328.5 C 297.5,334.5 297.5,340.5 297.5,346.5C 297.167,347.833 296.833,347.833 296.5,346.5C 296.167,345.833 295.833,345.167 295.5,344.5C 296.167,339.167 296.833,333.833 297.5,328.5 Z"/></g>
<g><path style="opacity:0.224" fill="#a7d3e1" d="M 299.5,326.5 C 302.03,325.224 304.697,325.224 307.5,326.5C 308.827,344.662 308.827,362.662 307.5,380.5C 307.5,362.833 307.5,345.167 307.5,327.5C 305.833,327.5 304.167,327.5 302.5,327.5C 301.791,326.596 300.791,326.263 299.5,326.5 Z"/></g>
<g><path style="opacity:0.004" fill="#fefffe" d="M 49.5,334.5 C 50.8333,335.167 50.8333,335.167 49.5,334.5 Z"/></g>
<g><path style="opacity:1" fill="#2c89a7" d="M 117.5,329.5 C 120.5,329.5 123.5,329.5 126.5,329.5C 126.433,330.959 126.766,332.292 127.5,333.5C 128.908,341.224 131.408,348.557 135,355.5C 136.038,361.24 137.371,366.907 139,372.5C 142.572,376.836 141.572,378.169 136,376.5C 135.468,373.736 134.634,371.07 133.5,368.5C 132.624,367.749 131.624,367.249 130.5,367C 132.948,363.644 133.115,360.144 131,356.5C 128.402,352.303 126.069,347.97 124,343.5C 123.517,344.448 123.351,345.448 123.5,346.5C 122.842,345.602 122.176,344.602 121.5,343.5C 118.317,349.53 115.984,355.863 114.5,362.5C 114.611,363.117 114.944,363.617 115.5,364C 119.486,364.499 123.486,364.666 127.5,364.5C 127.227,366.451 127.893,367.951 129.5,369C 123.319,369.172 117.319,369.672 111.5,370.5C 110.596,371.209 110.263,372.209 110.5,373.5C 109.504,373.414 108.671,373.748 108,374.5C 107.505,376.473 107.338,378.473 107.5,380.5C 104.102,380.82 100.768,380.487 97.5,379.5C 99.6447,375.4 100.978,371.067 101.5,366.5C 105.172,361.476 107.505,355.81 108.5,349.5C 111.181,346.808 112.514,343.475 112.5,339.5C 114.636,337.188 116.636,334.688 118.5,332C 117.748,331.329 117.414,330.496 117.5,329.5 Z M 125.5,354.5 C 125.472,356.582 126.139,358.416 127.5,360C 123.789,360.825 120.122,360.659 116.5,359.5C 118.169,355.49 119.836,351.49 121.5,347.5C 122.843,349.904 124.177,352.238 125.5,354.5 Z"/></g>
<g><path style="opacity:1" fill="#438aa0" d="M 302.5,327.5 C 304.167,327.5 305.833,327.5 307.5,327.5C 307.5,345.167 307.5,362.833 307.5,380.5C 304.5,381.833 301.5,381.833 298.5,380.5C 298.5,379.167 298.5,377.833 298.5,376.5C 300.588,377.939 302.921,378.606 305.5,378.5C 305.667,365.163 305.5,351.829 305,338.5C 304.5,338 304,337.5 303.5,337C 306.08,334.88 306.08,332.713 303.5,330.5C 302.675,329.614 301.675,329.281 300.5,329.5C 300.91,335.621 300.41,341.621 299,347.5C 298.601,347.272 298.435,346.938 298.5,346.5C 298.5,340.167 298.5,333.833 298.5,327.5C 299.833,327.5 301.167,327.5 302.5,327.5 Z"/></g>
<g><path style="opacity:0.094" fill="#c0e8f3" d="M 129.5,335.5 C 130.931,336.78 131.598,338.447 131.5,340.5C 130.069,339.22 129.402,337.553 129.5,335.5 Z"/></g>
<g><path style="opacity:0.513" fill="#71a7b7" d="M 299.5,326.5 C 300.791,326.263 301.791,326.596 302.5,327.5C 301.167,327.5 299.833,327.5 298.5,327.5C 298.5,333.833 298.5,340.167 298.5,346.5C 298.167,346.5 297.833,346.5 297.5,346.5C 297.5,340.5 297.5,334.5 297.5,328.5C 297.5,327.167 298.167,326.5 299.5,326.5 Z"/></g>
<g><path style="opacity:0.294" fill="#96c6d4" d="M 218.5,345.5 C 211.427,342.372 204.093,341.705 196.5,343.5C 204.291,339.132 211.625,339.799 218.5,345.5 Z"/></g>
<g><path style="opacity:0.388" fill="#9ac5d4" d="M 288.5,341.5 C 280.923,342.018 274.59,345.018 269.5,350.5C 272.796,344.172 278.129,340.839 285.5,340.5C 286.726,340.52 287.726,340.853 288.5,341.5 Z"/></g>
<g><path style="opacity:0.129" fill="#bbe2ed" d="M 372.5,341.5 C 373.097,340.861 373.93,340.528 375,340.5C 379.335,341.008 383.501,341.675 387.5,342.5C 383.833,342.5 380.167,342.5 376.5,342.5C 375.432,341.566 374.099,341.232 372.5,341.5 Z"/></g>
<g><path style="opacity:0.004" fill="#fefffe" d="M 47.5,342.5 C 48.8333,343.167 48.8333,343.167 47.5,342.5 Z"/></g>
<g><path style="opacity:0.004" fill="#fefffe" d="M 51.5,342.5 C 52.8333,343.167 52.8333,343.167 51.5,342.5 Z"/></g>
<g><path style="opacity:0.498" fill="#91c2d1" d="M 255.5,342.5 C 249.444,341.516 244.111,342.849 239.5,346.5C 238.833,346.5 238.167,346.5 237.5,346.5C 237.5,345.167 237.5,343.833 237.5,342.5C 238.15,342.804 238.817,343.137 239.5,343.5C 242.859,341.991 246.359,340.991 250,340.5C 252.221,340.393 254.054,341.06 255.5,342.5 Z"/></g>
<g><path style="opacity:0.192" fill="#a3cfd8" d="M 289.5,341.5 C 292.089,341.461 294.089,342.461 295.5,344.5C 293.181,344.008 291.181,343.008 289.5,341.5 Z"/></g>
<g><path style="opacity:0.588" fill="#70a5b3" d="M 376.5,342.5 C 380.167,342.5 383.833,342.5 387.5,342.5C 388.338,342.842 388.672,343.508 388.5,344.5C 388.5,345.167 388.5,345.833 388.5,346.5C 387.733,345.828 387.066,344.995 386.5,344C 382.975,343.821 379.641,343.321 376.5,342.5 Z"/></g>
<g><path style="opacity:0.639" fill="#8ebbc6" d="M 416.5,345.5 C 416.167,345.5 415.833,345.5 415.5,345.5C 412.229,343.158 408.562,342.824 404.5,344.5C 404.5,344.167 404.5,343.833 404.5,343.5C 404.611,342.883 404.944,342.383 405.5,342C 409.167,341.333 412.833,341.333 416.5,342C 417.791,343.292 417.791,344.458 416.5,345.5 Z"/></g>
<g><path style="opacity:0.153" fill="#a6d9ea" d="M 332.5,341.5 C 335.505,341.253 338.005,342.253 340,344.5C 340.278,343.584 340.778,342.918 341.5,342.5C 341.5,342.833 341.5,343.167 341.5,343.5C 341.657,344.873 341.49,346.207 341,347.5C 338.329,345.098 335.495,343.098 332.5,341.5 Z"/></g>
<g><path style="opacity:0.251" fill="#aad4e2" d="M 332.5,341.5 C 323.385,341.313 316.385,344.98 311.5,352.5C 315.708,343.33 322.708,339.663 332.5,341.5 Z"/></g>
<g><path style="opacity:0.122" fill="#b8dee9" d="M 131.5,340.5 C 133.679,344.203 135.345,348.203 136.5,352.5C 133.688,349.087 132.021,345.087 131.5,340.5 Z"/></g>
<g><path style="opacity:0.408" fill="#95c2cf" d="M 196.5,343.5 C 194.5,346.167 192.167,348.5 189.5,350.5C 190.833,347.167 193.167,344.833 196.5,343.5 Z"/></g>
<g><path style="opacity:0.216" fill="#add7e3" d="M 219.5,345.5 C 220.906,345.973 221.573,346.973 221.5,348.5C 220.094,348.027 219.427,347.027 219.5,345.5 Z"/></g>
<g><path style="opacity:0.98" fill="#6ca4b3" d="M 255.5,342.5 C 261.388,344.256 264.388,348.256 264.5,354.5C 264.5,363.167 264.5,371.833 264.5,380.5C 261.167,381.833 257.833,381.833 254.5,380.5C 257.5,380.5 260.5,380.5 263.5,380.5C 263.666,371.161 263.5,361.827 263,352.5C 262.34,350.676 261.173,349.343 259.5,348.5C 258.598,346.659 257.264,345.326 255.5,344.5C 255.5,343.833 255.5,343.167 255.5,342.5 Z"/></g>
<g><path style="opacity:0.549" fill="#89b9ca" d="M 112.5,339.5 C 112.514,343.475 111.181,346.808 108.5,349.5C 109.321,345.873 110.654,342.54 112.5,339.5 Z"/></g>
<g><path style="opacity:0.494" fill="#93c2cf" d="M 153.5,343.5 C 151.5,346.167 149.167,348.5 146.5,350.5C 147.833,347.167 150.167,344.833 153.5,343.5 Z"/></g>
<g><path style="opacity:1" fill="#2f89a6" d="M 175.5,343.5 C 175.281,344.675 175.614,345.675 176.5,346.5C 178.042,345.253 179.542,345.253 181,346.5C 181.667,358.833 181.667,371.167 181,383.5C 180.013,386.134 178.513,388.468 176.5,390.5C 167.852,395.537 159.185,395.703 150.5,391C 149.167,389.667 149.167,388.333 150.5,387C 153.447,387.152 156.447,387.319 159.5,387.5C 162.187,387.664 164.854,387.497 167.5,387C 168.942,386.623 169.942,385.79 170.5,384.5C 170.5,383.833 170.833,383.5 171.5,383.5C 173.616,381.912 173.949,379.912 172.5,377.5C 171.478,377.855 170.811,378.522 170.5,379.5C 170.158,380.338 169.492,380.672 168.5,380.5C 163.009,380.85 157.676,380.184 152.5,378.5C 144.276,370.599 142.276,361.265 146.5,350.5C 149.167,348.5 151.5,346.167 153.5,343.5C 158.14,342.603 162.806,342.436 167.5,343C 170.102,343.883 172.269,345.383 174,347.5C 174.21,345.942 174.71,344.609 175.5,343.5 Z M 167.5,351.5 C 168.263,352.268 169.263,352.768 170.5,353C 171.399,354.652 172.399,356.152 173.5,357.5C 173.968,361.942 172.968,365.942 170.5,369.5C 161.996,372.747 156.663,369.914 154.5,361C 155.609,353.444 159.942,350.277 167.5,351.5 Z"/></g>
<g><path style="opacity:1" fill="#3e8aa1" d="M 237.5,342.5 C 237.5,343.833 237.5,345.167 237.5,346.5C 235.611,345.62 233.611,345.62 231.5,346.5C 231.162,349.157 231.829,351.49 233.5,353.5C 232.902,354.795 232.402,356.128 232,357.5C 231.667,357.167 231.333,356.833 231,356.5C 230.233,360.558 230.4,364.558 231.5,368.5C 229.216,371.817 229.049,375.15 231,378.5C 232.584,377.139 234.418,376.472 236.5,376.5C 236.334,369.825 236.5,363.158 237,356.5C 237.131,353.629 238.297,351.295 240.5,349.5C 239.873,348.583 239.539,347.583 239.5,346.5C 244.111,342.849 249.444,341.516 255.5,342.5C 255.5,343.167 255.5,343.833 255.5,344.5C 253.304,344.41 251.137,344.077 249,343.5C 247.129,343.709 245.962,344.709 245.5,346.5C 248.844,347.841 252.011,349.508 255,351.5C 255.973,353.392 256.64,355.392 257,357.5C 257.333,363.833 257.667,370.167 258,376.5C 259.011,377.337 260.178,377.67 261.5,377.5C 261.678,372.961 261.345,368.461 260.5,364C 260.615,362.105 261.282,360.438 262.5,359C 260.342,358.041 260.009,356.541 261.5,354.5C 260.822,352.484 260.156,350.484 259.5,348.5C 261.173,349.343 262.34,350.676 263,352.5C 263.5,361.827 263.666,371.161 263.5,380.5C 260.5,380.5 257.5,380.5 254.5,380.5C 254.5,380.167 254.5,379.833 254.5,379.5C 254.752,370.127 254.418,360.793 253.5,351.5C 252.167,351.5 250.833,351.5 249.5,351.5C 243.242,348.741 239.575,350.741 238.5,357.5C 237.508,364.982 237.175,372.648 237.5,380.5C 234.5,380.5 231.5,380.5 228.5,380.5C 228.5,367.833 228.5,355.167 228.5,342.5C 231.604,341.225 234.604,341.225 237.5,342.5 Z"/></g>
<g><path style="opacity:1" fill="#5095ab" d="M 364.5,342.5 C 364.5,342.833 364.5,343.167 364.5,343.5C 361.833,343.5 359.167,343.5 356.5,343.5C 356.179,355.081 356.512,366.581 357.5,378C 359.235,378.651 360.902,378.485 362.5,377.5C 363.794,371.141 363.794,364.808 362.5,358.5C 365.103,355.031 366.437,351.364 366.5,347.5C 367.075,345.589 368.075,343.922 369.5,342.5C 370.209,341.596 371.209,341.263 372.5,341.5C 374.099,341.232 375.432,341.566 376.5,342.5C 379.641,343.321 382.975,343.821 386.5,344C 387.066,344.995 387.733,345.828 388.5,346.5C 388.5,347.167 388.5,347.833 388.5,348.5C 383.658,347.624 378.824,345.957 374,343.5C 372.287,344.137 372.121,345.137 373.5,346.5C 374.325,347.386 375.325,347.719 376.5,347.5C 376.5,348.833 376.5,350.167 376.5,351.5C 370.883,350.146 367.216,352.146 365.5,357.5C 364.508,364.982 364.175,372.648 364.5,380.5C 361.5,380.5 358.5,380.5 355.5,380.5C 354.34,368.007 354.173,355.34 355,342.5C 358.269,341.182 361.435,341.182 364.5,342.5 Z"/></g>
<g><path style="opacity:0.353" fill="#9dd5e6" d="M 364.5,342.5 C 366.099,343.562 367.766,343.562 369.5,342.5C 368.075,343.922 367.075,345.589 366.5,347.5C 365.883,347.611 365.383,347.944 365,348.5C 364.506,346.866 364.34,345.199 364.5,343.5C 364.5,343.167 364.5,342.833 364.5,342.5 Z"/></g>
<g><path style="opacity:0.408" fill="#a5d2e1" d="M 388.5,344.5 C 390.405,348.216 391.739,352.216 392.5,356.5C 390.975,353.921 389.641,351.254 388.5,348.5C 388.5,347.833 388.5,347.167 388.5,346.5C 388.5,345.833 388.5,345.167 388.5,344.5 Z"/></g>
<g><path style="opacity:1" fill="#3c8aa1" d="M 288.5,341.5 C 288.833,341.5 289.167,341.5 289.5,341.5C 291.181,343.008 293.181,344.008 295.5,344.5C 295.833,345.167 296.167,345.833 296.5,346.5C 293.916,347.048 292.916,348.715 293.5,351.5C 290.221,350.508 286.888,350.341 283.5,351C 281.881,351.236 280.881,352.069 280.5,353.5C 280.5,354.167 280.167,354.5 279.5,354.5C 278.272,355.306 277.272,356.306 276.5,357.5C 276.738,353.862 278.404,351.029 281.5,349C 285.25,348.74 288.916,348.073 292.5,347C 291.624,345.415 290.291,344.415 288.5,344C 285.103,344.013 281.77,344.679 278.5,346C 277.023,348.148 275.023,349.482 272.5,350C 272,352.521 270.667,354.354 268.5,355.5C 268.629,353.784 268.962,352.117 269.5,350.5C 274.59,345.018 280.923,342.018 288.5,341.5 Z"/></g>
<g><path style="opacity:1" fill="#2789aa" d="M 255.5,344.5 C 257.264,345.326 258.598,346.659 259.5,348.5C 260.156,350.484 260.822,352.484 261.5,354.5C 260.009,356.541 260.342,358.041 262.5,359C 261.282,360.438 260.615,362.105 260.5,364C 261.345,368.461 261.678,372.961 261.5,377.5C 260.178,377.67 259.011,377.337 258,376.5C 257.667,370.167 257.333,363.833 257,357.5C 256.64,355.392 255.973,353.392 255,351.5C 252.011,349.508 248.844,347.841 245.5,346.5C 245.962,344.709 247.129,343.709 249,343.5C 251.137,344.077 253.304,344.41 255.5,344.5 Z"/></g>
<g><path style="opacity:0.267" fill="#9ec7d7" d="M 221.5,348.5 C 222.906,348.973 223.573,349.973 223.5,351.5C 222.094,351.027 221.427,350.027 221.5,348.5 Z"/></g>
<g><path style="opacity:0.169" fill="#acd6ea" d="M 249.5,351.5 C 245.316,350.704 242.15,352.037 240,355.5C 239.829,363.677 239.329,371.677 238.5,379.5C 238.5,372.167 238.5,364.833 238.5,357.5C 239.575,350.741 243.242,348.741 249.5,351.5 Z"/></g>
<g><path style="opacity:0.333" fill="#aad5e1" d="M 404.5,343.5 C 404.5,343.833 404.5,344.167 404.5,344.5C 402.171,351.822 399.837,359.155 397.5,366.5C 396.603,367.598 395.77,367.598 395,366.5C 394.51,365.207 394.343,363.873 394.5,362.5C 395.268,363.263 395.768,364.263 396,365.5C 398.567,357.95 401.4,350.616 404.5,343.5 Z"/></g>
<g><path style="opacity:0.306" fill="#aedce9" d="M 123.5,346.5 C 124.371,349.112 125.037,351.779 125.5,354.5C 127.585,356.684 128.585,359.351 128.5,362.5C 123.833,362.5 119.167,362.5 114.5,362.5C 115.984,355.863 118.317,349.53 121.5,343.5C 122.176,344.602 122.842,345.602 123.5,346.5 Z M 125.5,354.5 C 124.177,352.238 122.843,349.904 121.5,347.5C 119.836,351.49 118.169,355.49 116.5,359.5C 120.122,360.659 123.789,360.825 127.5,360C 126.139,358.416 125.472,356.582 125.5,354.5 Z"/></g>
<g><path style="opacity:0.133" fill="#a2dee5" d="M 189.5,350.5 C 189.573,352.027 188.906,353.027 187.5,353.5C 187.427,351.973 188.094,350.973 189.5,350.5 Z"/></g>
<g><path style="opacity:0.537" fill="#9fd1df" d="M 249.5,351.5 C 250.833,351.5 252.167,351.5 253.5,351.5C 254.418,360.793 254.752,370.127 254.5,379.5C 253.671,371.677 253.171,363.677 253,355.5C 252.31,353.65 251.144,352.316 249.5,351.5 Z"/></g>
<g><path style="opacity:1" fill="#398aa2" d="M 332.5,341.5 C 335.495,343.098 338.329,345.098 341,347.5C 341.49,346.207 341.657,344.873 341.5,343.5C 344.5,343.5 347.5,343.5 350.5,343.5C 350.5,355.833 350.5,368.167 350.5,380.5C 347.5,380.5 344.5,380.5 341.5,380.5C 341.5,380.167 341.5,379.833 341.5,379.5C 341.5,378.5 341.5,377.5 341.5,376.5C 343.108,375.462 344.108,376.129 344.5,378.5C 345.325,379.386 346.325,379.719 347.5,379.5C 347.906,368.907 347.906,358.074 347.5,347C 345.567,346.217 344.067,346.717 343,348.5C 342.88,355.173 342.88,361.839 343,368.5C 341.59,369.787 340.09,370.954 338.5,372C 339.38,373.356 339.714,374.856 339.5,376.5C 339.5,377.167 339.5,377.833 339.5,378.5C 339.5,379.167 339.167,379.5 338.5,379.5C 337.5,379.5 336.5,379.5 335.5,379.5C 335.5,378.167 335.5,376.833 335.5,375.5C 322.364,375.861 316.864,369.528 319,356.5C 320.257,354.321 321.757,352.321 323.5,350.5C 322.564,349.026 321.23,348.026 319.5,347.5C 315.512,349.654 313.346,352.987 313,357.5C 311.995,363.468 312.829,369.134 315.5,374.5C 314.833,374.5 314.167,374.5 313.5,374.5C 313.5,374.167 313.5,373.833 313.5,373.5C 313.34,371.847 312.674,370.514 311.5,369.5C 310.596,368.791 310.263,367.791 310.5,366.5C 310.467,362.131 310.8,357.798 311.5,353.5C 311.5,353.167 311.5,352.833 311.5,352.5C 316.385,344.98 323.385,341.313 332.5,341.5 Z M 333.5,351.5 C 334.514,352.674 335.847,353.34 337.5,353.5C 337.833,354.5 338.5,355.167 339.5,355.5C 341.394,361.149 340.394,366.149 336.5,370.5C 332.246,372.132 328.246,371.799 324.5,369.5C 324.167,369.5 323.833,369.5 323.5,369.5C 322.833,367.833 322.167,366.167 321.5,364.5C 321.368,361.43 321.701,358.43 322.5,355.5C 325.529,352.6 329.196,351.266 333.5,351.5 Z"/></g>
<g><path style="opacity:1" fill="#2889a9" d="M 341.5,376.5 C 341.062,375.494 340.396,375.494 339.5,376.5C 339.714,374.856 339.38,373.356 338.5,372C 340.09,370.954 341.59,369.787 343,368.5C 342.88,361.839 342.88,355.173 343,348.5C 344.067,346.717 345.567,346.217 347.5,347C 347.906,358.074 347.906,368.907 347.5,379.5C 346.325,379.719 345.325,379.386 344.5,378.5C 344.108,376.129 343.108,375.462 341.5,376.5 Z"/></g>
<g><path style="opacity:0.122" fill="#ace1eb" d="M 333.5,351.5 C 335.38,351.229 336.713,351.896 337.5,353.5C 335.847,353.34 334.514,352.674 333.5,351.5 Z"/></g>
<g><path style="opacity:0.188" fill="#a5d4e1" d="M 333.5,351.5 C 329.196,351.266 325.529,352.6 322.5,355.5C 322.916,353.248 324.249,351.748 326.5,351C 329.039,350.204 331.372,350.371 333.5,351.5 Z"/></g>
<g><path style="opacity:0.098" fill="#9dcddc" d="M 167.5,351.5 C 159.942,350.277 155.609,353.444 154.5,361C 156.663,369.914 161.996,372.747 170.5,369.5C 163.117,374.564 157.617,372.898 154,364.5C 152.657,353.67 157.157,349.337 167.5,351.5 Z"/></g>
<g><path style="opacity:0.341" fill="#8fc4d2" d="M 167.5,351.5 C 171.697,351.194 173.697,353.194 173.5,357.5C 172.399,356.152 171.399,354.652 170.5,353C 169.263,352.768 168.263,352.268 167.5,351.5 Z"/></g>
<g><path style="opacity:0.22" fill="#a7d0df" d="M 415.5,345.5 C 415.833,345.5 416.167,345.5 416.5,345.5C 414.678,351.136 412.345,356.469 409.5,361.5C 410.94,355.954 412.94,350.62 415.5,345.5 Z"/></g>
<g><path style="opacity:0.404" fill="#aed4e6" d="M 136.5,352.5 C 137.738,354.214 138.405,356.214 138.5,358.5C 136.926,356.898 136.259,354.898 136.5,352.5 Z"/></g>
<g><path style="opacity:1" fill="#2d89a7" d="M 298.5,376.5 C 296.975,375.611 295.975,376.278 295.5,378.5C 294.089,380.539 292.089,381.539 289.5,381.5C 285.019,381.575 280.686,380.908 276.5,379.5C 275.415,377.413 273.749,376.08 271.5,375.5C 267.645,369.177 266.645,362.51 268.5,355.5C 270.667,354.354 272,352.521 272.5,350C 275.023,349.482 277.023,348.148 278.5,346C 281.77,344.679 285.103,344.013 288.5,344C 290.291,344.415 291.624,345.415 292.5,347C 288.916,348.073 285.25,348.74 281.5,349C 278.404,351.029 276.738,353.862 276.5,357.5C 276.336,360.187 276.503,362.854 277,365.5C 277.278,366.416 277.778,367.082 278.5,367.5C 278.833,369.833 280.167,371.167 282.5,371.5C 294.302,374.541 299.469,369.874 298,357.5C 297.617,356.944 297.117,356.611 296.5,356.5C 295.925,354.589 294.925,352.922 293.5,351.5C 292.916,348.715 293.916,347.048 296.5,346.5C 296.833,347.833 297.167,347.833 297.5,346.5C 297.833,346.5 298.167,346.5 298.5,346.5C 298.435,346.938 298.601,347.272 299,347.5C 300.41,341.621 300.91,335.621 300.5,329.5C 301.675,329.281 302.675,329.614 303.5,330.5C 306.08,332.713 306.08,334.88 303.5,337C 304,337.5 304.5,338 305,338.5C 305.5,351.829 305.667,365.163 305.5,378.5C 302.921,378.606 300.588,377.939 298.5,376.5 Z M 296.5,356.5 C 298.849,367.823 294.182,372.823 282.5,371.5C 281.5,369.833 280.167,368.5 278.5,367.5C 276.972,363.009 277.305,358.676 279.5,354.5C 280.167,354.5 280.5,354.167 280.5,353.5C 286.611,350.389 291.945,351.389 296.5,356.5 Z"/></g>
<g><path style="opacity:0.169" fill="#9fd0dc" d="M 293.5,351.5 C 294.925,352.922 295.925,354.589 296.5,356.5C 291.945,351.389 286.611,350.389 280.5,353.5C 280.881,352.069 281.881,351.236 283.5,351C 286.888,350.341 290.221,350.508 293.5,351.5 Z"/></g>
<g><path style="opacity:0.401" fill="#8cbfcd" d="M 184.5,356.5 C 184.5,358.5 184.5,360.5 184.5,362.5C 184.5,362.833 184.5,363.167 184.5,363.5C 184.5,363.833 184.5,364.167 184.5,364.5C 184.666,370.842 184.5,377.175 184,383.5C 183.768,384.737 183.268,385.737 182.5,386.5C 183.347,372.184 183.68,357.851 183.5,343.5C 180.833,343.5 178.167,343.5 175.5,343.5C 174.71,344.609 174.21,345.942 174,347.5C 172.269,345.383 170.102,343.883 167.5,343C 162.806,342.436 158.14,342.603 153.5,343.5C 160.139,339.348 166.639,339.681 173,344.5C 173.374,343.584 173.874,342.75 174.5,342C 177.5,341.333 180.5,341.333 183.5,342C 184.469,346.737 184.803,351.57 184.5,356.5 Z"/></g>
<g><path style="opacity:1" fill="#2989a9" d="M 237.5,346.5 C 238.167,346.5 238.833,346.5 239.5,346.5C 239.539,347.583 239.873,348.583 240.5,349.5C 238.297,351.295 237.131,353.629 237,356.5C 236.5,363.158 236.334,369.825 236.5,376.5C 234.418,376.472 232.584,377.139 231,378.5C 229.049,375.15 229.216,371.817 231.5,368.5C 230.4,364.558 230.233,360.558 231,356.5C 231.333,356.833 231.667,357.167 232,357.5C 232.402,356.128 232.902,354.795 233.5,353.5C 231.829,351.49 231.162,349.157 231.5,346.5C 233.611,345.62 235.611,345.62 237.5,346.5 Z"/></g>
<g><path style="opacity:0.557" fill="#8cc0cc" d="M 108.5,349.5 C 107.505,355.81 105.172,361.476 101.5,366.5C 103.267,360.515 105.6,354.848 108.5,349.5 Z"/></g>
<g><path style="opacity:0.115" fill="#c1f0fb" d="M 184.5,356.5 C 185.167,356.833 185.833,357.167 186.5,357.5C 186.5,360.167 186.5,362.833 186.5,365.5C 185.833,365.167 185.167,364.833 184.5,364.5C 184.5,364.167 184.5,363.833 184.5,363.5C 185.833,363.167 185.833,362.833 184.5,362.5C 184.5,360.5 184.5,358.5 184.5,356.5 Z"/></g>
<g><path style="opacity:1" fill="#3189a4" d="M 218.5,345.5 C 218.833,345.5 219.167,345.5 219.5,345.5C 219.427,347.027 220.094,348.027 221.5,348.5C 221.427,350.027 222.094,351.027 223.5,351.5C 224.908,355.686 225.575,360.019 225.5,364.5C 216.318,364.173 207.318,364.507 198.5,365.5C 197.115,366.947 197.448,367.947 199.5,368.5C 199.36,370.124 200.027,371.29 201.5,372C 203.333,372.167 205.167,372.333 207,372.5C 209.295,372.453 211.129,371.787 212.5,370.5C 214.167,369.833 215.833,369.167 217.5,368.5C 217.833,369.167 218.167,369.833 218.5,370.5C 221.161,373.179 221.161,375.846 218.5,378.5C 212.037,381.329 205.37,381.995 198.5,380.5C 196.326,380.25 194.659,379.25 193.5,377.5C 192.598,375.659 191.264,374.326 189.5,373.5C 187.903,367.367 187.237,361.034 187.5,354.5C 187.5,354.167 187.5,353.833 187.5,353.5C 188.906,353.027 189.573,352.027 189.5,350.5C 192.167,348.5 194.5,346.167 196.5,343.5C 204.093,341.705 211.427,342.372 218.5,345.5 Z M 214.5,355.5 C 209.35,356.651 204.016,356.817 198.5,356C 199.252,355.329 199.586,354.496 199.5,353.5C 200.167,353.5 200.5,353.167 200.5,352.5C 205.945,350.422 210.611,351.422 214.5,355.5 Z"/></g>
<g><path style="opacity:0.416" fill="#7cb8c7" d="M 197.5,355.5 C 203.074,357.453 209.074,358.12 215.5,357.5C 209.355,358.49 203.022,358.823 196.5,358.5C 196.263,357.209 196.596,356.209 197.5,355.5 Z"/></g>
<g><path style="opacity:0.043" fill="#c4eaf4" d="M 199.5,353.5 C 199.586,354.496 199.252,355.329 198.5,356C 204.016,356.817 209.35,356.651 214.5,355.5C 215.338,355.842 215.672,356.508 215.5,357.5C 209.074,358.12 203.074,357.453 197.5,355.5C 197.833,354.5 198.5,353.833 199.5,353.5 Z"/></g>
<g><path style="opacity:0.204" fill="#a3cfde" d="M 214.5,355.5 C 210.611,351.422 205.945,350.422 200.5,352.5C 203.629,349.114 207.295,348.614 211.5,351C 213.141,352.129 214.141,353.629 214.5,355.5 Z"/></g>
<g><path style="opacity:0.482" fill="#8fc3d3" d="M 269.5,350.5 C 268.962,352.117 268.629,353.784 268.5,355.5C 266.645,362.51 267.645,369.177 271.5,375.5C 268.325,373.008 266.659,369.674 266.5,365.5C 266.5,362.833 266.5,360.167 266.5,357.5C 266.552,354.654 267.552,352.32 269.5,350.5 Z"/></g>
<g><path style="opacity:0.169" fill="#a2d7e6" d="M 311.5,353.5 C 310.8,357.798 310.467,362.131 310.5,366.5C 309.84,365.036 309.507,363.369 309.5,361.5C 309.382,358.514 310.048,355.848 311.5,353.5 Z"/></g>
<g><path style="opacity:0.098" fill="#a7d2e1" d="M 173.5,357.5 C 174.774,361.074 174.607,364.741 173,368.5C 172.329,369.252 171.496,369.586 170.5,369.5C 172.968,365.942 173.968,361.942 173.5,357.5 Z"/></g>
<g><path style="opacity:0.231" fill="#9ccbd7" d="M 228.5,342.5 C 228.5,355.167 228.5,367.833 228.5,380.5C 227.673,375.015 227.173,369.348 227,363.5C 226.583,364.756 225.75,365.423 224.5,365.5C 215.833,365.5 207.167,365.5 198.5,365.5C 207.318,364.507 216.318,364.173 225.5,364.5C 225.575,360.019 224.908,355.686 223.5,351.5C 225.718,354.719 226.885,358.386 227,362.5C 227.172,355.654 227.672,348.987 228.5,342.5 Z"/></g>
<g><path style="opacity:0.157" fill="#a0d0e3" d="M 279.5,354.5 C 277.305,358.676 276.972,363.009 278.5,367.5C 277.778,367.082 277.278,366.416 277,365.5C 276.503,362.854 276.336,360.187 276.5,357.5C 277.272,356.306 278.272,355.306 279.5,354.5 Z"/></g>
<g><path style="opacity:0.09" fill="#aed9e6" d="M 339.5,355.5 C 341.971,359.587 342.137,363.92 340,368.5C 339.184,369.823 338.017,370.489 336.5,370.5C 340.394,366.149 341.394,361.149 339.5,355.5 Z"/></g>
<g><path style="opacity:0.517" fill="#94c1d0" d="M 341.5,380.5 C 344.5,380.5 347.5,380.5 350.5,380.5C 350.5,368.167 350.5,355.833 350.5,343.5C 347.5,343.5 344.5,343.5 341.5,343.5C 341.5,343.167 341.5,342.833 341.5,342.5C 342.964,341.84 344.631,341.507 346.5,341.5C 348.641,341.613 350.475,342.28 352,343.5C 352.682,356.183 352.516,368.85 351.5,381.5C 347.958,381.813 344.625,381.479 341.5,380.5 Z"/></g>
<g><path style="opacity:0.62" fill="#91c0d2" d="M 138.5,358.5 C 140.065,360.509 141.065,362.843 141.5,365.5C 139.166,363.824 138.166,361.491 138.5,358.5 Z"/></g>
<g><path style="opacity:1" fill="#3b879e" d="M 175.5,343.5 C 178.167,343.5 180.833,343.5 183.5,343.5C 183.68,357.851 183.347,372.184 182.5,386.5C 181.094,386.973 180.427,387.973 180.5,389.5C 180.167,390.5 179.5,391.167 178.5,391.5C 176.566,392.11 174.899,393.11 173.5,394.5C 166.167,395.833 158.833,395.833 151.5,394.5C 150.415,392.413 148.749,391.08 146.5,390.5C 147.412,388.405 148.579,386.405 150,384.5C 151.011,383.663 152.178,383.33 153.5,383.5C 153.833,383.5 154.167,383.5 154.5,383.5C 154.414,384.496 154.748,385.329 155.5,386C 157.058,386.21 158.391,386.71 159.5,387.5C 156.447,387.319 153.447,387.152 150.5,387C 149.167,388.333 149.167,389.667 150.5,391C 159.185,395.703 167.852,395.537 176.5,390.5C 178.513,388.468 180.013,386.134 181,383.5C 181.667,371.167 181.667,358.833 181,346.5C 179.542,345.253 178.042,345.253 176.5,346.5C 175.614,345.675 175.281,344.675 175.5,343.5 Z"/></g>
<g><path style="opacity:0.098" fill="#b3eaf8" d="M 264.5,354.5 C 265.167,355.5 265.833,356.5 266.5,357.5C 266.5,360.167 266.5,362.833 266.5,365.5C 265.833,370.5 265.167,375.5 264.5,380.5C 264.5,371.833 264.5,363.167 264.5,354.5 Z"/></g>
<g><path style="opacity:0.369" fill="#7fb7c4" d="M 320.5,358.5 C 320.205,360.735 320.539,362.735 321.5,364.5C 322.167,366.167 322.833,367.833 323.5,369.5C 321.583,368.884 320.416,367.55 320,365.5C 319.204,362.961 319.371,360.628 320.5,358.5 Z"/></g>
<g><path style="opacity:0.031" fill="#bcdef3" d="M 322.5,355.5 C 321.701,358.43 321.368,361.43 321.5,364.5C 320.539,362.735 320.205,360.735 320.5,358.5C 320.427,356.973 321.094,355.973 322.5,355.5 Z"/></g>
<g><path style="opacity:0.423" fill="#7db2c3" d="M 238.5,357.5 C 238.5,364.833 238.5,372.167 238.5,379.5C 237.306,380.777 235.64,381.444 233.5,381.5C 231.631,381.493 229.964,381.16 228.5,380.5C 231.5,380.5 234.5,380.5 237.5,380.5C 237.175,372.648 237.508,364.982 238.5,357.5 Z"/></g>
<g><path style="opacity:1" fill="#2a88a7" d="M 364.5,343.5 C 364.34,345.199 364.506,346.866 365,348.5C 365.383,347.944 365.883,347.611 366.5,347.5C 366.437,351.364 365.103,355.031 362.5,358.5C 363.794,364.808 363.794,371.141 362.5,377.5C 360.902,378.485 359.235,378.651 357.5,378C 356.512,366.581 356.179,355.081 356.5,343.5C 359.167,343.5 361.833,343.5 364.5,343.5 Z"/></g>
<g><path style="opacity:0.004" fill="#fefffe" d="M 5.5,364.5 C 6.83333,365.167 6.83333,365.167 5.5,364.5 Z"/></g>
<g><path style="opacity:1" fill="#328ca8" d="M 335.5,379.5 C 334.833,380.167 334.167,380.833 333.5,381.5C 329.456,382.942 325.456,382.609 321.5,380.5C 321.027,379.094 320.027,378.427 318.5,378.5C 317.5,377.167 316.5,375.833 315.5,374.5C 312.829,369.134 311.995,363.468 313,357.5C 313.346,352.987 315.512,349.654 319.5,347.5C 321.23,348.026 322.564,349.026 323.5,350.5C 321.757,352.321 320.257,354.321 319,356.5C 316.864,369.528 322.364,375.861 335.5,375.5C 335.5,376.833 335.5,378.167 335.5,379.5 Z"/></g>
<g><path style="opacity:1" fill="#2d89a9" d="M 388.5,348.5 C 389.641,351.254 390.975,353.921 392.5,356.5C 392.054,359.01 392.72,361.01 394.5,362.5C 394.343,363.873 394.51,365.207 395,366.5C 395.77,367.598 396.603,367.598 397.5,366.5C 398.183,368.176 399.517,368.843 401.5,368.5C 401.601,374.257 399.434,378.924 395,382.5C 393.954,381.228 393.454,379.728 393.5,378C 394.047,374.642 394.047,371.142 393.5,367.5C 391.239,366.591 389.072,366.258 387,366.5C 384.695,361.28 382.695,355.947 381,350.5C 380.31,349.262 379.81,349.262 379.5,350.5C 378.728,349.306 377.728,348.306 376.5,347.5C 375.325,347.719 374.325,347.386 373.5,346.5C 372.121,345.137 372.287,344.137 374,343.5C 378.824,345.957 383.658,347.624 388.5,348.5 Z"/></g>
<g><path style="opacity:0.114" fill="#a3cfe0" d="M 409.5,361.5 C 409.293,364.241 408.293,366.574 406.5,368.5C 406.5,367.5 406.5,366.5 406.5,365.5C 407.5,364.167 408.5,362.833 409.5,361.5 Z"/></g>
<g><path style="opacity:1" fill="#3b8aa2" d="M 127.5,333.5 C 128.167,334.167 128.833,334.833 129.5,335.5C 129.402,337.553 130.069,339.22 131.5,340.5C 132.021,345.087 133.688,349.087 136.5,352.5C 136.259,354.898 136.926,356.898 138.5,358.5C 138.166,361.491 139.166,363.824 141.5,365.5C 141.12,367.698 141.787,369.365 143.5,370.5C 143.402,372.553 144.069,374.22 145.5,375.5C 145.5,377.167 145.5,378.833 145.5,380.5C 142.167,380.5 138.833,380.5 135.5,380.5C 134.463,379.07 133.796,377.403 133.5,375.5C 133.714,373.856 133.38,372.356 132.5,371C 125.508,370.5 118.508,370.334 111.5,370.5C 117.319,369.672 123.319,369.172 129.5,369C 127.893,367.951 127.227,366.451 127.5,364.5C 123.486,364.666 119.486,364.499 115.5,364C 114.944,363.617 114.611,363.117 114.5,362.5C 119.167,362.5 123.833,362.5 128.5,362.5C 128.585,359.351 127.585,356.684 125.5,354.5C 125.037,351.779 124.371,349.112 123.5,346.5C 123.351,345.448 123.517,344.448 124,343.5C 126.069,347.97 128.402,352.303 131,356.5C 133.115,360.144 132.948,363.644 130.5,367C 131.624,367.249 132.624,367.749 133.5,368.5C 134.634,371.07 135.468,373.736 136,376.5C 141.572,378.169 142.572,376.836 139,372.5C 137.371,366.907 136.038,361.24 135,355.5C 131.408,348.557 128.908,341.224 127.5,333.5 Z"/></g>
<g><path style="opacity:0.092" fill="#cbf3f9" d="M 198.5,365.5 C 207.167,365.5 215.833,365.5 224.5,365.5C 215.95,365.845 207.617,366.845 199.5,368.5C 197.448,367.947 197.115,366.947 198.5,365.5 Z"/></g>
<g><path style="opacity:0.376" fill="#a2cbdb" d="M 376.5,347.5 C 377.728,348.306 378.728,349.306 379.5,350.5C 382.785,358.736 385.785,367.069 388.5,375.5C 384.871,368.474 381.704,361.14 379,353.5C 378.583,352.244 377.75,351.577 376.5,351.5C 376.5,350.167 376.5,348.833 376.5,347.5 Z"/></g>
<g><path style="opacity:0.035" fill="#bee1f6" d="M 376.5,351.5 C 372.357,351.828 369.19,353.828 367,357.5C 366.829,364.679 366.329,371.679 365.5,378.5C 365.5,371.5 365.5,364.5 365.5,357.5C 367.216,352.146 370.883,350.146 376.5,351.5 Z"/></g>
<g><path style="opacity:0.192" fill="#a6d7e1" d="M 146.5,350.5 C 142.276,361.265 144.276,370.599 152.5,378.5C 149.572,377.409 147.406,375.409 146,372.5C 145.517,373.448 145.351,374.448 145.5,375.5C 144.069,374.22 143.402,372.553 143.5,370.5C 141.787,369.365 141.12,367.698 141.5,365.5C 142.222,365.918 142.722,366.584 143,367.5C 142.343,362.086 143.01,356.752 145,351.5C 145.383,350.944 145.883,350.611 146.5,350.5 Z"/></g>
<g><path style="opacity:0.831" fill="#78acbe" d="M 187.5,354.5 C 187.237,361.034 187.903,367.367 189.5,373.5C 187.733,371.208 186.733,368.542 186.5,365.5C 186.5,362.833 186.5,360.167 186.5,357.5C 186.263,356.209 186.596,355.209 187.5,354.5 Z"/></g>
<g><path style="opacity:0.016" fill="#ade0e8" d="M 217.5,368.5 C 219.404,368.738 220.738,369.738 221.5,371.5C 220.391,371.443 219.391,371.11 218.5,370.5C 218.167,369.833 217.833,369.167 217.5,368.5 Z"/></g>
<g><path style="opacity:0.349" fill="#9cccd9" d="M 278.5,367.5 C 280.167,368.5 281.5,369.833 282.5,371.5C 280.167,371.167 278.833,369.833 278.5,367.5 Z"/></g>
<g><path style="opacity:0.4" fill="#9fc8d7" d="M 217.5,368.5 C 215.833,369.167 214.167,369.833 212.5,370.5C 213.591,367.808 215.257,367.142 217.5,368.5 Z"/></g>
<g><path style="opacity:0.431" fill="#97c7d6" d="M 296.5,356.5 C 297.117,356.611 297.617,356.944 298,357.5C 299.469,369.874 294.302,374.541 282.5,371.5C 294.182,372.823 298.849,367.823 296.5,356.5 Z"/></g>
<g><path style="opacity:0.304" fill="#90c3d2" d="M 111.5,370.5 C 118.508,370.334 125.508,370.5 132.5,371C 133.38,372.356 133.714,373.856 133.5,375.5C 132.636,374.312 131.636,373.145 130.5,372C 123.656,371.01 116.99,371.51 110.5,373.5C 110.263,372.209 110.596,371.209 111.5,370.5 Z"/></g>
<g><path style="opacity:0.125" fill="#acd3dd" d="M 311.5,369.5 C 312.674,370.514 313.34,371.847 313.5,373.5C 311.896,372.713 311.229,371.38 311.5,369.5 Z"/></g>
<g><path style="opacity:0.055" fill="#acd7e7" d="M 199.5,368.5 C 203.287,371.686 207.621,372.353 212.5,370.5C 211.129,371.787 209.295,372.453 207,372.5C 205.167,372.333 203.333,372.167 201.5,372C 200.027,371.29 199.36,370.124 199.5,368.5 Z"/></g>
<g><path style="opacity:0.055" fill="#acd7e9" d="M 324.5,369.5 C 328.246,371.799 332.246,372.132 336.5,370.5C 336.389,371.117 336.056,371.617 335.5,372C 332.167,372.667 328.833,372.667 325.5,372C 324.748,371.329 324.414,370.496 324.5,369.5 Z"/></g>
<g><path style="opacity:0.403" fill="#83b6ca" d="M 365.5,357.5 C 365.5,364.5 365.5,371.5 365.5,378.5C 365.5,379.5 365.5,380.5 365.5,381.5C 361.958,381.813 358.625,381.479 355.5,380.5C 358.5,380.5 361.5,380.5 364.5,380.5C 364.175,372.648 364.508,364.982 365.5,357.5 Z"/></g>
<g><path style="opacity:1" fill="#3389a2" d="M 415.5,345.5 C 412.94,350.62 410.94,355.954 409.5,361.5C 408.5,362.833 407.5,364.167 406.5,365.5C 406.5,366.5 406.5,367.5 406.5,368.5C 405.735,369.66 404.735,370.66 403.5,371.5C 401.815,376.86 400.148,382.193 398.5,387.5C 398.5,388.167 398.167,388.5 397.5,388.5C 396.292,389.234 394.959,389.567 393.5,389.5C 393.649,390.552 393.483,391.552 393,392.5C 391.122,393.053 389.622,394.053 388.5,395.5C 384.833,395.5 381.167,395.5 377.5,395.5C 377.5,392.5 377.5,389.5 377.5,386.5C 381.839,387.154 385.673,386.154 389,383.5C 389.483,382.552 389.649,381.552 389.5,380.5C 390.678,378.662 390.345,376.995 388.5,375.5C 385.785,367.069 382.785,358.736 379.5,350.5C 379.81,349.262 380.31,349.262 381,350.5C 382.695,355.947 384.695,361.28 387,366.5C 389.072,366.258 391.239,366.591 393.5,367.5C 394.047,371.142 394.047,374.642 393.5,378C 393.454,379.728 393.954,381.228 395,382.5C 399.434,378.924 401.601,374.257 401.5,368.5C 399.517,368.843 398.183,368.176 397.5,366.5C 399.837,359.155 402.171,351.822 404.5,344.5C 408.562,342.824 412.229,343.158 415.5,345.5 Z"/></g>
<g><path style="opacity:0.576" fill="#90c3d2" d="M 392.5,356.5 C 393.738,358.214 394.405,360.214 394.5,362.5C 392.72,361.01 392.054,359.01 392.5,356.5 Z"/></g>
<g><path style="opacity:1" fill="#2a87aa" d="M 406.5,365.5 C 405.221,366.968 403.554,367.635 401.5,367.5C 401.489,365.453 401.156,363.453 400.5,361.5C 401.786,359.71 403.286,358.043 405,356.5C 405.499,352.848 405.665,349.182 405.5,345.5C 406.833,345.5 408.167,345.5 409.5,345.5C 409.665,349.182 409.499,352.848 409,356.5C 407.451,359.312 406.618,362.312 406.5,365.5 Z"/></g>
<g><path style="opacity:0.933" fill="#72a5b2" d="M 218.5,370.5 C 219.391,371.11 220.391,371.443 221.5,371.5C 223.273,372.314 223.773,373.648 223,375.5C 221.871,377.141 220.371,378.141 218.5,378.5C 221.161,375.846 221.161,373.179 218.5,370.5 Z"/></g>
<g><path style="opacity:0.557" fill="#8cbecb" d="M 101.5,366.5 C 100.978,371.067 99.6447,375.4 97.5,379.5C 100.768,380.487 104.102,380.82 107.5,380.5C 104.038,381.482 100.371,381.815 96.5,381.5C 97.1873,376.105 98.8539,371.105 101.5,366.5 Z"/></g>
<g><path style="opacity:0.302" fill="#9eced8" d="M 313.5,374.5 C 314.167,374.5 314.833,374.5 315.5,374.5C 316.5,375.833 317.5,377.167 318.5,378.5C 316.251,377.92 314.585,376.587 313.5,374.5 Z"/></g>
<g><path style="opacity:0.835" fill="#78afbb" d="M 110.5,373.5 C 110.448,376.346 109.448,378.68 107.5,380.5C 107.338,378.473 107.505,376.473 108,374.5C 108.671,373.748 109.504,373.414 110.5,373.5 Z"/></g>
<g><path style="opacity:0.235" fill="#99d0de" d="M 189.5,373.5 C 191.264,374.326 192.598,375.659 193.5,377.5C 191.29,377.106 189.957,375.773 189.5,373.5 Z"/></g>
<g><path style="opacity:0.494" fill="#85b6c7" d="M 271.5,375.5 C 273.749,376.08 275.415,377.413 276.5,379.5C 274.251,378.92 272.585,377.587 271.5,375.5 Z"/></g>
<g><path style="opacity:0.043" fill="#abdef8" d="M 341.5,376.5 C 341.5,377.5 341.5,378.5 341.5,379.5C 340.833,379.167 340.167,378.833 339.5,378.5C 339.5,377.833 339.5,377.167 339.5,376.5C 340.396,375.494 341.062,375.494 341.5,376.5 Z"/></g>
<g><path style="opacity:0.208" fill="#8eced9" d="M 298.5,376.5 C 298.5,377.833 298.5,379.167 298.5,380.5C 297.778,379.449 296.778,378.782 295.5,378.5C 295.975,376.278 296.975,375.611 298.5,376.5 Z"/></g>
<g><path style="opacity:0.306" fill="#93cfe0" d="M 388.5,375.5 C 390.345,376.995 390.678,378.662 389.5,380.5C 388.962,378.883 388.629,377.216 388.5,375.5 Z"/></g>
<g><path style="opacity:0.192" fill="#83b9c7" d="M 406.5,368.5 C 404.597,375.224 401.931,381.557 398.5,387.5C 400.148,382.193 401.815,376.86 403.5,371.5C 404.735,370.66 405.735,369.66 406.5,368.5 Z"/></g>
<g><path style="opacity:0.004" fill="#fefffe" d="M 75.5,379.5 C 76.8333,380.167 76.8333,380.167 75.5,379.5 Z"/></g>
<g><path style="opacity:0.122" fill="#96cedb" d="M 318.5,378.5 C 320.027,378.427 321.027,379.094 321.5,380.5C 319.973,380.573 318.973,379.906 318.5,378.5 Z"/></g>
<g><path style="opacity:0.18" fill="#a1d4dd" d="M 335.5,379.5 C 336.5,379.5 337.5,379.5 338.5,379.5C 337.22,380.931 335.553,381.598 333.5,381.5C 334.167,380.833 334.833,380.167 335.5,379.5 Z"/></g>
<g><path style="opacity:0.263" fill="#9dc4cd" d="M 145.5,375.5 C 147.008,377.171 147.341,379.004 146.5,381C 142.642,381.81 138.976,381.643 135.5,380.5C 138.833,380.5 142.167,380.5 145.5,380.5C 145.5,378.833 145.5,377.167 145.5,375.5 Z"/></g>
<g><path style="opacity:0.231" fill="#9ccbd5" d="M 152.5,378.5 C 157.676,380.184 163.009,380.85 168.5,380.5C 164.689,381.645 160.689,381.812 156.5,381C 154.68,380.8 153.347,379.966 152.5,378.5 Z"/></g>
<g><path style="opacity:0.161" fill="#9bc8d3" d="M 218.5,378.5 C 216.615,380.311 214.281,381.478 211.5,382C 208.242,382.212 205.076,382.712 202,383.5C 201.015,382.186 199.848,381.186 198.5,380.5C 205.37,381.995 212.037,381.329 218.5,378.5 Z"/></g>
<g><path style="opacity:0.125" fill="#9ac6d6" d="M 276.5,379.5 C 280.686,380.908 285.019,381.575 289.5,381.5C 284.881,383.046 280.548,382.38 276.5,379.5 Z"/></g>
<g><path style="opacity:0.235" fill="#a2d8e3" d="M 171.5,383.5 C 171.539,382.417 171.873,381.417 172.5,380.5C 172.043,379.702 171.376,379.369 170.5,379.5C 170.811,378.522 171.478,377.855 172.5,377.5C 173.949,379.912 173.616,381.912 171.5,383.5 Z"/></g>
<g><path style="opacity:0.004" fill="#fefffe" d="M 320.5,382.5 C 321.833,383.167 321.833,383.167 320.5,382.5 Z"/></g>
<g><path style="opacity:0.306" fill="#a2d2de" d="M 389.5,380.5 C 389.649,381.552 389.483,382.552 389,383.5C 385.673,386.154 381.839,387.154 377.5,386.5C 382.52,386.544 386.52,384.544 389.5,380.5 Z"/></g>
<g><path style="opacity:0.251" fill="#9bcbdb" d="M 154.5,383.5 C 159.635,386.993 164.968,387.327 170.5,384.5C 169.942,385.79 168.942,386.623 167.5,387C 164.854,387.497 162.187,387.664 159.5,387.5C 158.391,386.71 157.058,386.21 155.5,386C 154.748,385.329 154.414,384.496 154.5,383.5 Z"/></g>
<g><path style="opacity:0.004" fill="#fefffe" d="M 321.5,386.5 C 322.833,387.167 322.833,387.167 321.5,386.5 Z"/></g>
<g><path style="opacity:0.275" fill="#a4cdd9" d="M 153.5,383.5 C 152.178,383.33 151.011,383.663 150,384.5C 148.579,386.405 147.412,388.405 146.5,390.5C 145.427,389.749 145.26,388.749 146,387.5C 147.61,385.269 149.443,383.269 151.5,381.5C 152.522,381.855 153.189,382.522 153.5,383.5 Z"/></g>
<g><path style="opacity:0.082" fill="#a7d8e4" d="M 182.5,386.5 C 182.573,388.027 181.906,389.027 180.5,389.5C 180.427,387.973 181.094,386.973 182.5,386.5 Z"/></g>
<g><path style="opacity:0.565" fill="#89bbc6" d="M 146.5,390.5 C 148.749,391.08 150.415,392.413 151.5,394.5C 149.251,393.92 147.585,392.587 146.5,390.5 Z"/></g>
<g><path style="opacity:0.051" fill="#abd1e0" d="M 178.5,391.5 C 177.421,393.543 175.754,394.876 173.5,395.5C 173.5,395.167 173.5,394.833 173.5,394.5C 174.899,393.11 176.566,392.11 178.5,391.5 Z"/></g>
<g><path style="opacity:0.004" fill="#fefffe" d="M 144.5,393.5 C 145.833,394.167 145.833,394.167 144.5,393.5 Z"/></g>
<g><path style="opacity:0.369" fill="#7eb1c3" d="M 397.5,388.5 C 396.095,392.236 393.429,394.569 389.5,395.5C 389.167,395.5 388.833,395.5 388.5,395.5C 389.622,394.053 391.122,393.053 393,392.5C 393.483,391.552 393.649,390.552 393.5,389.5C 394.959,389.567 396.292,389.234 397.5,388.5 Z"/></g>
<g><path style="opacity:0.286" fill="#a4d0da" d="M 377.5,386.5 C 377.5,389.5 377.5,392.5 377.5,395.5C 381.167,395.5 384.833,395.5 388.5,395.5C 388.833,395.5 389.167,395.5 389.5,395.5C 385.228,397.877 380.895,397.877 376.5,395.5C 376.167,394.833 375.833,394.167 375.5,393.5C 376.067,391.018 376.734,388.684 377.5,386.5 Z"/></g>
<g><path style="opacity:0.369" fill="#87b7ca" d="M 151.5,394.5 C 158.833,395.833 166.167,395.833 173.5,394.5C 173.5,394.833 173.5,395.167 173.5,395.5C 165.929,398.227 158.595,397.894 151.5,394.5 Z"/></g>
<g><path style="opacity:0.004" fill="#fefffe" d="M 81.5,398.5 C 82.8333,399.167 82.8333,399.167 81.5,398.5 Z"/></g>
<g><path style="opacity:0.004" fill="#fefffe" d="M 361.5,404.5 C 362.833,405.167 362.833,405.167 361.5,404.5 Z"/></g>
<g><path style="opacity:0.004" fill="#fefffe" d="M 57.5,407.5 C 58.8333,408.167 58.8333,408.167 57.5,407.5 Z"/></g>
<g><path style="opacity:0.004" fill="#fefffe" d="M 442.5,415.5 C 443.833,416.167 443.833,416.167 442.5,415.5 Z"/></g>
<g><path style="opacity:0.004" fill="#fefffe" d="M 36.5,416.5 C 37.8333,417.167 37.8333,417.167 36.5,416.5 Z"/></g>
<g><path style="opacity:0.004" fill="#fefffe" d="M 138.5,416.5 C 139.833,417.167 139.833,417.167 138.5,416.5 Z"/></g>
<g><path style="opacity:0.004" fill="#fefffe" d="M 76.5,420.5 C 77.8333,421.167 77.8333,421.167 76.5,420.5 Z"/></g>
<g><path style="opacity:0.004" fill="#fefffe" d="M 338.5,422.5 C 339.833,423.167 339.833,423.167 338.5,422.5 Z"/></g>
<g><path style="opacity:0.004" fill="#fefffe" d="M 445.5,427.5 C 446.833,428.167 446.833,428.167 445.5,427.5 Z"/></g>
<g><path style="opacity:0.004" fill="#fefffe" d="M 394.5,429.5 C 395.833,430.167 395.833,430.167 394.5,429.5 Z"/></g>
<g><path style="opacity:0.004" fill="#fefffe" d="M 360.5,443.5 C 361.833,444.167 361.833,444.167 360.5,443.5 Z"/></g>
<g><path style="opacity:0.004" fill="#fefffe" d="M 471.5,457.5 C 472.833,458.167 472.833,458.167 471.5,457.5 Z"/></g>
<g><path style="opacity:0.004" fill="#fefffe" d="M 28.5,462.5 C 29.8333,463.167 29.8333,463.167 28.5,462.5 Z"/></g>
<g><path style="opacity:0.004" fill="#fefffe" d="M 301.5,468.5 C 302.833,469.167 302.833,469.167 301.5,468.5 Z"/></g>
<g><path style="opacity:0.004" fill="#fefffe" d="M 128.5,473.5 C 129.833,474.167 129.833,474.167 128.5,473.5 Z"/></g>
<g><path style="opacity:0.004" fill="#fefffe" d="M 77.5,477.5 C 78.8333,478.167 78.8333,478.167 77.5,477.5 Z"/></g>
<g><path style="opacity:0.004" fill="#fefffe" d="M 473.5,477.5 C 474.833,478.167 474.833,478.167 473.5,477.5 Z"/></g>
<g><path style="opacity:0.004" fill="#fefffe" d="M 106.5,487.5 C 107.833,488.167 107.833,488.167 106.5,487.5 Z"/></g>
<g><path style="opacity:0.004" fill="#fefffe" d="M 40.5,496.5 C 41.8333,497.167 41.8333,497.167 40.5,496.5 Z"/></g>
</svg>
